PathFileType	4	(X/Y/Z)	D:\TRACE\spot_10-12-23\spot_arm_motion_1_2-v60.trc
DataRate	CameraRate	NumFrames	NumMarkers	Units	OrigDataRate	OrigDataStartFrame	OrigNumFrames
100.00	100.00	      14	9	mm	100.00	876	      7000
Frame#	Time	front left toe			Front right toe			aft left toe			aft right toe			Arm			FL body			FR body			AL Body			AR Body			
		X1	Y1	Z1	X2	Y2	Z2	X3	Y3	Z3	X4	Y4	Z4	X5	Y5	Z5	X6	Y6	Z6	X7	Y7	Z7	X8	Y8	Z8	X9	Y9	Z9	

876	8.750	-290.05664	16.44384	-37.77806	224.58249	20.58552	-130.30669	-180.35040	41.19486	547.01849	329.33310	38.74524	451.35754	36.87819	836.08069	-718.86334	-157.54550	539.42737	-138.88086	-7.55723	542.76709	-168.51454	10.87912	578.81000	727.95685	158.68806	576.20648	701.50562	
877	8.760	-289.28720	16.66660	-37.87467	224.71167	20.55668	-130.25977	-179.73824	41.14951	547.05627	330.12079	38.73814	451.33640	38.69601	835.71198	-719.45990	-156.81572	539.69739	-138.74442	-6.73740	543.01434	-168.83823	11.64605	578.54657	727.96912	159.64651	575.99896	701.48480	
878	8.770	-288.08411	16.41782	-37.66623	225.39635	20.56173	-130.28366	-178.84059	40.97426	547.16785	330.98126	38.60365	451.27582	40.70709	835.10699	-720.71643	-155.86067	539.97040	-138.52042	-5.95278	543.70471	-168.09724	12.64609	578.42828	727.97906	160.53578	575.94220	701.31860	
879	8.780	-287.60837	16.37728	-37.46201	225.99771	20.89000	-130.27550	-177.74051	41.01466	547.16846	331.79196	38.48411	451.28177	43.08193	834.33508	-722.61017	-155.15315	540.35602	-137.98747	-5.25334	544.44598	-167.82533	13.78422	577.65839	728.73553	161.93570	575.63202	701.82983	
880	8.790	-286.98950	16.39845	-37.47006	226.77457	21.09025	-130.10027	-177.11531	41.00266	547.15662	332.57147	38.38871	451.39783	46.29799	832.55499	-725.17401	-154.51866	541.00372	-137.70987	-4.26459	545.33710	-167.62920	14.91513	577.30292	729.16846	162.54204	575.64905	702.18860	
881	8.800	-286.13138	16.38801	-37.44780	226.79222	20.31030	-130.06389	-176.60583	40.90631	547.16064	333.18802	38.37586	451.48047	48.96623	830.89532	-728.23944	-153.61339	541.29480	-137.20061	-4.52839	546.54974	-167.75504	15.72388	576.94879	729.59045	163.46733	575.62299	702.59601	
882	8.810	-285.63922	16.46076	-37.59106	228.22627	21.00892	-130.07199	-175.99791	40.75584	547.15942	333.93674	38.27649	451.50858	52.61986	828.09204	-731.69037	-152.92220	541.67291	-136.51199	-3.17874	547.18158	-166.57764	16.51767	576.42200	729.75256	164.61417	575.56512	702.89612	
883	8.820	-285.07397	16.70923	-37.56651	228.63091	21.18411	-130.09384	-175.17574	40.49046	547.25232	334.48996	38.14750	451.54269	56.31827	824.42822	-735.18823	-152.19418	542.38824	-136.16293	-2.08748	547.69025	-166.38503	17.40109	576.25885	730.49591	165.07816	575.47095	703.51080	
884	8.830	-284.25174	16.69948	-37.44283	229.40776	21.01924	-130.18420	-174.55145	40.24360	547.35608	335.06369	38.02624	451.58963	60.11758	820.22272	-738.75269	-151.12773	542.68622	-135.68063	-1.10258	548.17963	-165.35420	18.22963	576.13031	731.08099	165.90404	575.57977	704.22980	
885	8.840	-283.48688	16.51273	-37.31620	230.27574	21.03776	-130.30141	-173.92897	40.08865	547.49933	335.79318	37.84275	451.82010	63.67189	814.96167	-742.22552	-150.13789	542.93628	-135.30809	-0.00334	548.47211	-164.97896	18.17030	576.11884	731.13477	166.61693	575.59949	704.50848	
886	8.850	-282.87946	16.72001	-37.28544	231.84479	21.12829	-130.25540	-173.19412	39.95430	547.61591	336.36264	37.71733	451.83807	66.81910	809.43146	-745.35870	-149.13907	543.28973	-135.30046	0.82935	548.58112	-164.77454	19.13609	576.42157	732.08850	167.24492	575.79700	705.14960	
887	8.860	-282.04901	16.64840	-37.40646	231.63824	20.78835	-129.78030	-172.49664	39.92781	547.62720	336.94214	37.69610	451.92886	70.32330	803.30585	-748.49139	-147.64690	543.31018	-134.92688	2.33258	548.50757	-164.42656	20.06903	576.99536	732.49524	167.75027	576.14044	705.56525	
888	8.870	-281.60446	16.71737	-37.41708	232.62192	20.70997	-129.68861	-172.04289	39.87020	547.58722	337.58020	37.75915	452.01578	73.40165	796.83746	-751.15973	-146.56804	543.04285	-134.96164	3.73149	547.94452	-164.58923	20.60403	577.44067	732.40631	168.14597	576.65765	705.81226	
889	8.880	-280.99966	16.69168	-37.57918	234.03926	20.78768	-129.64568	-171.63792	39.82494	547.54114	337.93774	37.57499	452.03555	76.25211	790.23853	-753.20074	-145.01573	542.38928	-134.97473	5.07382	547.40918	-164.09656	21.03331	578.18695	732.59308	168.89204	577.15192	706.33588	
